PathFileType	4	(X/Y/Z)	 control3min.trc
DataRate	CameraRate	NumFrames	NumMarkers	Units	OrigDataRate	OrigDataStartFrame	OrigNumFrames
200	200	8	39	m	200	626	1000
Frame#	Time	C7			LSH			RSH			MAN			RASI			LASI			HIPR			HIPL			RPSI			LPSI			COX			RTHI1			RTHI2			RTHI3			RTHI4			RLKN			RMKN			RSHA1			RSHA2			RSHA3			RSHA4			RHEEL			RMET5			RMET1			RTOE			LTHI1			LTHI2			LTHI3			LTHI4			LLKN			LMKN			LSHA1			LSHA2			LSHA3			LSHA4			LHEEL			LMET5			LMET1			LTOE			
		X1	Y1	Z1	X2	Y2	Z2	X3	Y3	Z3	X4	Y4	Z4	X5	Y5	Z5	X6	Y6	Z6	X7	Y7	Z7	X8	Y8	Z8	X9	Y9	Z9	X10	Y10	Z10	X11	Y11	Z11	X12	Y12	Z12	X13	Y13	Z13	X14	Y14	Z14	X15	Y15	Z15	X16	Y16	Z16	X17	Y17	Z17	X18	Y18	Z18	X19	Y19	Z19	X20	Y20	Z20	X21	Y21	Z21	X22	Y22	Z22	X23	Y23	Z23	X24	Y24	Z24	X25	Y25	Z25	X26	Y26	Z26	X27	Y27	Z27	X28	Y28	Z28	X29	Y29	Z29	X30	Y30	Z30	X31	Y31	Z31	X32	Y32	Z32	X33	Y33	Z33	X34	Y34	Z34	X35	Y35	Z35	X36	Y36	Z36	X37	Y37	Z37	X38	Y38	Z38	X39	Y39	Z39	
626	3.1300	-0.258673	1.594082	-0.532017	-0.217784	1.584215	-0.716627	-0.224232	1.585879	-0.355599	-0.109011	1.541943	-0.541208	-0.105136	1.084983	-0.418097	-0.108602	1.090661	-0.665352	-0.169013	1.147794	-0.371546	-0.181815	1.160248	-0.701908	-0.277083	1.144685	-0.500306	-0.278017	1.145855	-0.563729	-0.276439	1.146535	-0.533759	-0.174017	0.857784	-0.335272	-0.166926	0.796917	-0.335923	-0.096420	0.813388	-0.343087	-0.110486	0.871402	-0.342235	-0.186913	0.590040	-0.359462	-0.162669	0.570209	-0.490482	-0.259404	0.351055	-0.351252	-0.275183	0.313783	-0.364352	-0.216512	0.296294	-0.361550	-0.204668	0.333488	-0.352163	-0.324429	0.185148	-0.418067	-0.186958	0.085030	-0.348594	-0.136145	0.093274	-0.415341	-0.110034	0.079355	-0.407121	-0.232573	0.843985	-0.726323	-0.219485	0.785873	-0.723825	-0.152466	0.802235	-0.747652	-0.174097	0.860445	-0.747854	-0.211598	0.577689	-0.720720	-0.179624	0.554525	-0.601802	-0.298153	0.340579	-0.710644	-0.307043	0.302887	-0.702295	-0.248896	0.290836	-0.723832	-0.248036	0.334554	-0.730072	-0.344970	0.186466	-0.654770	-0.214331	0.079710	-0.728497	-0.159898	0.098120	-0.674616	-0.136307	0.082869	-0.682228	
627	3.1350	-0.258958	1.595335	-0.532106	-0.218084	1.585497	-0.716834	-0.224515	1.586948	-0.355594	-0.109193	1.543225	-0.541433	-0.105381	1.086169	-0.418366	-0.108824	1.091680	-0.665376	-0.169305	1.148598	-0.371646	-0.182097	1.160896	-0.702035	-0.277473	1.145712	-0.500461	-0.278374	1.146957	-0.563894	-0.276831	1.147604	-0.533950	-0.173346	0.859115	-0.335493	-0.166215	0.798247	-0.336268	-0.095801	0.814800	-0.344146	-0.109897	0.872779	-0.343114	-0.186748	0.591376	-0.359801	-0.162741	0.571669	-0.490786	-0.259796	0.352706	-0.351771	-0.275607	0.315429	-0.364877	-0.216981	0.297808	-0.361918	-0.205090	0.335026	-0.352563	-0.324881	0.186204	-0.418289	-0.186461	0.087092	-0.349214	-0.136146	0.095542	-0.416167	-0.109856	0.081927	-0.407920	-0.231813	0.844937	-0.727173	-0.218708	0.786833	-0.724477	-0.151455	0.803278	-0.747616	-0.173073	0.861429	-0.748059	-0.211822	0.578986	-0.720686	-0.179252	0.555885	-0.601919	-0.298608	0.341914	-0.709877	-0.307374	0.304117	-0.701217	-0.249409	0.292196	-0.723459	-0.248605	0.335874	-0.729653	-0.345213	0.187472	-0.654482	-0.213601	0.081514	-0.727679	-0.159556	0.100152	-0.673481	-0.135825	0.085034	-0.680998	
628	3.1400	-0.259220	1.596381	-0.532205	-0.218355	1.586494	-0.717088	-0.224767	1.587746	-0.355549	-0.109374	1.544264	-0.541660	-0.105629	1.087123	-0.418626	-0.109071	1.092496	-0.665417	-0.169618	1.149189	-0.371749	-0.182437	1.161346	-0.702164	-0.277904	1.146411	-0.500612	-0.278779	1.147722	-0.564057	-0.277273	1.148339	-0.534132	-0.172668	0.860243	-0.335759	-0.165499	0.799368	-0.336672	-0.095185	0.816002	-0.345209	-0.109299	0.873936	-0.344004	-0.186596	0.592500	-0.360154	-0.162894	0.572931	-0.491106	-0.260224	0.354114	-0.352284	-0.276095	0.316843	-0.365402	-0.217512	0.299075	-0.362327	-0.205560	0.336302	-0.352996	-0.325434	0.187062	-0.418480	-0.185981	0.088851	-0.350155	-0.136255	0.097604	-0.417377	-0.109758	0.084305	-0.409226	-0.231071	0.845706	-0.728000	-0.217937	0.787613	-0.725118	-0.150454	0.804162	-0.747535	-0.172070	0.862269	-0.748207	-0.211981	0.580065	-0.720646	-0.178895	0.557043	-0.602016	-0.299004	0.343020	-0.709174	-0.307735	0.304746	-0.700285	-0.249880	0.293294	-0.723032	-0.249096	0.336948	-0.729220	-0.345550	0.188323	-0.654295	-0.212890	0.083042	-0.726610	-0.159353	0.101909	-0.671977	-0.135480	0.086903	-0.679314	
629	3.1450	-0.259462	1.597220	-0.532314	-0.218599	1.587211	-0.717386	-0.224980	1.588274	-0.355468	-0.109557	1.545056	-0.541886	-0.105876	1.087850	-0.418878	-0.109344	1.093118	-0.665479	-0.169947	1.149586	-0.371866	-0.182835	1.161629	-0.702295	-0.278370	1.146797	-0.500757	-0.279221	1.148161	-0.564216	-0.277765	1.148753	-0.534310	-0.172001	0.861171	-0.336067	-0.164801	0.800280	-0.337124	-0.094588	0.816988	-0.346253	-0.108708	0.874868	-0.344883	-0.186422	0.593393	-0.360516	-0.163118	0.573983	-0.491444	-0.260666	0.355272	-0.352791	-0.276615	0.318011	-0.365911	-0.218076	0.300076	-0.362761	-0.206044	0.337317	-0.353459	-0.326067	0.187734	-0.418642	-0.185583	0.090212	-0.351282	-0.136487	0.099473	-0.418864	-0.109767	0.086424	-0.410883	-0.230380	0.846301	-0.728775	-0.217208	0.788227	-0.725710	-0.149510	0.804886	-0.747406	-0.171135	0.862942	-0.748290	-0.212059	0.580928	-0.720593	-0.178596	0.557992	-0.602075	-0.299317	0.343901	-0.708566	-0.308321	0.305708	-0.699835	-0.250274	0.294132	-0.722569	-0.249478	0.337772	-0.728790	-0.345954	0.189006	-0.654179	-0.212225	0.084255	-0.725345	-0.159274	0.103377	-0.670200	-0.135243	0.088497	-0.677310	
630	3.1500	-0.259684	1.597849	-0.532437	-0.218826	1.587644	-0.717723	-0.225154	1.588539	-0.355354	-0.109747	1.545609	-0.542113	-0.106114	1.088351	-0.419125	-0.109634	1.093551	-0.665560	-0.170295	1.149807	-0.372001	-0.183283	1.161763	-0.702435	-0.278867	1.146891	-0.500900	-0.279700	1.148285	-0.564374	-0.278287	1.148857	-0.534483	-0.171357	0.861887	-0.336410	-0.164133	0.800972	-0.337616	-0.094019	0.817716	-0.347250	-0.108134	0.875567	-0.345739	-0.186240	0.594093	-0.360874	-0.163410	0.574809	-0.491807	-0.261097	0.356152	-0.353288	-0.277132	0.318914	-0.366397	-0.218640	0.300839	-0.363230	-0.206520	0.338077	-0.353954	-0.326749	0.188226	-0.418799	-0.185264	0.091316	-0.352659	-0.136830	0.101099	-0.420581	-0.109887	0.088271	-0.412831	-0.229770	0.846726	-0.729462	-0.216549	0.788668	-0.726229	-0.148662	0.805443	-0.747235	-0.170320	0.863451	-0.748333	-0.212047	0.581576	-0.720525	-0.178384	0.558730	-0.602074	-0.299526	0.344563	-0.708080	-0.308407	0.306720	-0.698918	-0.250561	0.294723	-0.722079	-0.249725	0.338366	-0.728369	-0.346392	0.189526	-0.654111	-0.211635	0.085159	-0.723931	-0.159314	0.104516	-0.668234	-0.135149	0.089762	-0.675099	
631	3.1550	-0.259885	1.598266	-0.532570	-0.219037	1.587796	-0.718097	-0.225285	1.588554	-0.355214	-0.109944	1.545921	-0.542337	-0.106341	1.088632	-0.419365	-0.109931	1.093804	-0.665662	-0.170663	1.149861	-0.372158	-0.183771	1.161751	-0.702584	-0.279385	1.146710	-0.501043	-0.280207	1.148107	-0.564529	-0.278826	1.148662	-0.534648	-0.170747	0.862376	-0.336781	-0.163510	0.801438	-0.338116	-0.093484	0.818212	-0.348191	-0.107590	0.876032	-0.346554	-0.186039	0.594571	-0.361217	-0.163756	0.575393	-0.492199	-0.261499	0.356770	-0.353773	-0.277638	0.319557	-0.366865	-0.219182	0.301349	-0.363721	-0.206966	0.338581	-0.354481	-0.327466	0.188543	-0.418948	-0.185051	0.092043	-0.354142	-0.137272	0.102430	-0.422433	-0.110124	0.089839	-0.414979	-0.229261	0.846987	-0.730033	-0.215988	0.788940	-0.726649	-0.147941	0.805813	-0.747033	-0.169642	0.863785	-0.748331	-0.211943	0.582003	-0.720443	-0.178281	0.559254	-0.602003	-0.299631	0.345003	-0.707724	-0.308584	0.306980	-0.698508	-0.250728	0.295076	-0.721585	-0.249829	0.338724	-0.727960	-0.346843	0.189880	-0.654068	-0.211156	0.085739	-0.722438	-0.159481	0.105385	-0.666200	-0.135191	0.090740	-0.672807	
632	3.1600	-0.260070	1.598466	-0.532714	-0.219216	1.587667	-0.718496	-0.225374	1.588320	-0.355053	-0.110146	1.545998	-0.542557	-0.106553	1.088699	-0.419601	-0.110236	1.093877	-0.665786	-0.171049	1.149753	-0.372335	-0.184302	1.161590	-0.702742	-0.279910	1.146262	-0.501186	-0.280739	1.147642	-0.564681	-0.279369	1.148175	-0.534807	-0.170181	0.862627	-0.337169	-0.162933	0.801671	-0.338614	-0.092983	0.818461	-0.349057	-0.107085	0.876265	-0.347319	-0.185795	0.594807	-0.361559	-0.164137	0.575719	-0.492623	-0.261858	0.357120	-0.354241	-0.278109	0.319935	-0.367309	-0.219690	0.301606	-0.364241	-0.207376	0.338832	-0.355032	-0.328204	0.188694	-0.419089	-0.184962	0.092411	-0.355698	-0.137830	0.103431	-0.424365	-0.110498	0.091036	-0.417258	-0.228861	0.847066	-0.730476	-0.215539	0.789032	-0.726959	-0.147362	0.805988	-0.746815	-0.169111	0.863929	-0.748282	-0.211746	0.582200	-0.720354	-0.178294	0.559555	-0.601864	-0.299640	0.345220	-0.707492	-0.308661	0.307168	-0.698297	-0.250774	0.295201	-0.721091	-0.249798	0.338851	-0.727564	-0.347300	0.190064	-0.654053	-0.210795	0.086027	-0.720927	-0.159767	0.105934	-0.664146	-0.135368	0.091398	-0.670523	
633	3.1650	-0.260239	1.598444	-0.532866	-0.219368	1.587273	-0.718916	-0.225422	1.587839	-0.354869	-0.110356	1.545837	-0.542777	-0.106750	1.088558	-0.419833	-0.110545	1.093765	-0.665932	-0.171453	1.149475	-0.372534	-0.184867	1.161274	-0.702910	-0.280437	1.145551	-0.501326	-0.281282	1.146904	-0.564828	-0.279919	1.147410	-0.534961	-0.169660	0.862634	-0.337569	-0.162411	0.801668	-0.339101	-0.092513	0.818446	-0.349836	-0.106620	0.876264	-0.348027	-0.185502	0.594797	-0.361910	-0.164524	0.575781	-0.493073	-0.262169	0.357225	-0.354683	-0.278541	0.320076	-0.367726	-0.220150	0.301625	-0.364783	-0.207738	0.338829	-0.355605	-0.328955	0.188680	-0.419213	-0.184984	0.092508	-0.357346	-0.138506	0.104111	-0.426328	-0.111019	0.091854	-0.419546	-0.228572	0.846965	-0.730781	-0.215209	0.788938	-0.727156	-0.146939	0.805954	-0.746608	-0.168747	0.863895	-0.748214	-0.211455	0.582156	-0.720265	-0.178419	0.559632	-0.601663	-0.299561	0.345215	-0.707368	-0.308682	0.307311	-0.698300	-0.250709	0.295092	-0.720599	-0.249647	0.338747	-0.727181	-0.347771	0.190064	-0.654049	-0.210557	0.086017	-0.719437	-0.160156	0.106169	-0.662142	-0.135661	0.091765	-0.668299	
